<?xml version="1.0" encoding="iso-8859-1"?>
<!-- Uploaded to: SVG Repo, www.svgrepo.com, Generator: SVG Repo Mixer Tools -->
<svg height="800px" width="800px" version="1.1" id="Layer_1" xmlns="http://www.w3.org/2000/svg" xmlns:xlink="http://www.w3.org/1999/xlink" 
	 viewBox="0 0 512 512" xml:space="preserve">
<polygon style="fill:#402318;" points="207.912,165.511 177.633,187.241 338.274,286.002 325.171,221.698 "/>
<path style="fill:#782E14;" d="M24.126,196.265c-5.405,12.17-8.409,25.645-8.409,39.819v91.651h54.468L53.012,211.908
	L24.126,196.265z"/>
<path style="fill:#5E2916;" d="M338.274,264.215l-160.642-76.974l-37.787,27.117c-19.471,13.973-52.644,16.068-73.718,4.654
	l-13.117-7.104c-3.051,7.67-4.612,15.787-4.612,24.176v91.651h309.453L338.274,264.215z"/>
<path style="fill:#402318;" d="M461.336,261.17l-45.692-6.319l-13.803,30.785l59.188,42.099h32.681v-29.408
	C493.71,280.353,479.142,263.632,461.336,261.17z"/>
<path style="fill:#5E2916;" d="M456.861,293.543l-45.693-6.319c-2.95-0.409-6.08-0.946-9.327-1.588l-18.878,42.099h78.066v-29.408
	C461.029,296.676,459.292,293.936,456.861,293.543z"/>
<path style="fill:#B55C3F;" d="M309.716,250.53c-5.1,5.827-13.415,10.069-20.642,10.069H151c-30.873,0-56.13,25.259-56.13,56.13
	v11.006h320.775v-39.893L309.716,250.53z"/>
<path style="fill:#A94E30;" d="M354.133,235.575l-28.962-13.877l-12.358,24.332c-0.797,1.57-1.855,3.081-3.098,4.5l29.98,14.366
	c19.419,9.789,50.052,19.365,71.47,22.328l4.476,0.619V254.85C397.838,252.389,370.159,243.714,354.133,235.575z"/>
<polygon style="fill:#191514;" points="471.149,316.842 460.255,334.398 471.149,351.954 503.83,351.954 503.83,316.842 "/>
<polygon style="fill:#41362F;" points="8.17,316.842 8.17,351.954 40.851,351.954 51.745,334.398 40.851,316.842 "/>
<polygon style="fill:#211C1A;" points="40.851,316.842 40.851,351.954 138.444,351.954 138.444,344.076 242.808,344.076 
	291.857,351.954 471.149,351.954 471.149,316.842 "/>
<path d="M503.83,307.281h-1.95v-10.345c0-21.945-17.685-42.244-39.423-45.251l-45.693-6.319
	c-16.812-2.325-43.799-10.781-58.93-18.467c-0.057-0.028-0.113-0.057-0.169-0.084l-59.462-28.492l1.43-2.814
	c2.044-4.023,0.439-8.941-3.584-10.984c-4.025-2.043-8.943-0.438-10.984,3.585l-1.601,3.152l-23.3-11.165l1.87-3.683
	c2.043-4.023,0.437-8.941-3.585-10.984c-4.024-2.043-8.941-0.438-10.985,3.585l-2.041,4.019l-33.936-16.261
	c-0.005-0.002-0.011-0.005-0.016-0.008l-5.621-2.694c-4.07-1.95-8.949-0.232-10.899,3.837c-0.903,1.883-1.011,3.938-0.473,5.799
	l-59.393,42.623c-16.936,12.155-46.731,14.036-65.064,4.108L28.017,187.69c-2.002-1.086-4.367-1.285-6.524-0.55
	c-2.156,0.734-3.909,2.336-4.833,4.417c-6.046,13.614-9.111,28.127-9.111,43.137v72.619C3.327,307.63,0,311.148,0,315.451v35.112
	c0,4.512,3.657,8.17,8.17,8.17h130.273c4.415,0,8.011-3.501,8.165-7.878h95.547l48.407,7.775c0.429,0.069,0.862,0.103,1.295,0.103
	H503.83c4.513,0,8.17-3.658,8.17-8.17v-35.112C512,310.939,508.343,307.281,503.83,307.281z M485.539,296.936v10.345h-61.725
	v-44.444l36.404,5.035C473.943,269.77,485.539,283.079,485.539,296.936z M28.392,206.474l33.845,18.331
	c24.008,13.004,60.189,10.717,82.372-5.201l64.135-46.026l29.275,14.028l-11.017,21.691c-2.043,4.023-0.437,8.941,3.585,10.984
	c1.186,0.602,2.449,0.887,3.694,0.887c2.978,0,5.85-1.634,7.291-4.472l11.187-22.027l23.301,11.165l-11.017,21.691
	c-2.044,4.023-0.439,8.941,3.584,10.984c1.186,0.602,2.449,0.887,3.694,0.887c2.978,0,5.85-1.634,7.29-4.472l11.189-22.028
	l23.299,11.165l-8.57,16.879c-2.685,5.286-10.529,10.099-16.456,10.099h-50.924c-4.513,0-8.17,3.658-8.17,8.17
	c0,4.512,3.657,8.17,8.17,8.17h50.924c11.973,0,25.602-8.363,31.025-19.04l8.742-17.214l21.677,10.387
	c14.751,7.476,38.753,15.333,56.954,18.856v46.913H103.73c3.844-22.621,23.572-39.902,47.271-39.902h54.468
	c4.513,0,8.17-3.658,8.17-8.17c0-4.512-3.657-8.17-8.17-8.17h-54.468c-32.724,0-59.799,24.579-63.779,56.243H23.889v-72.587
	C23.889,224.987,25.4,215.529,28.392,206.474z M495.66,342.393H292.51l-48.407-7.775c-0.429-0.069-0.862-0.103-1.295-0.103H138.444
	c-4.415,0-8.011,3.501-8.165,7.878H16.34v-18.772H495.66V342.393z"/>
</svg>