<?xml version="1.0" encoding="iso-8859-1"?>
<!-- Uploaded to: SVG Repo, www.svgrepo.com, Generator: SVG Repo Mixer Tools -->
<svg version="1.1" id="Layer_1" xmlns="http://www.w3.org/2000/svg" xmlns:xlink="http://www.w3.org/1999/xlink" 
	 viewBox="0 0 512.001 512.001" xml:space="preserve">
<path style="fill:#B55C3F;" d="M452.324,485.652v-43.137l-152.573-45.017c-32.935-9.717-58.734-44.228-58.734-78.566V197.788
	l-40.34-23.259L73.582,289.397v154.861h75.548l103.687,41.395h215.848h-16.34V485.652z"/>
<polygon style="fill:#DA7A57;" points="40.9,318.934 40.9,444.258 73.581,444.258 73.582,289.397 "/>
<path style="fill:#A94E30;" d="M257.358,318.934V207.211l-32.681-18.843v130.565c0,20.046,7.216,40.738,20.317,58.263
	c13.102,17.526,30.906,30.302,50.134,35.975l140.857,41.559v30.92h32.681v-55.353l-164.29-48.473
	C278.516,374.197,257.358,345.895,257.358,318.934z"/>
<path style="fill:#913311;" d="M241.018,111.44c0-50.667-41.22-79.141-91.889-79.141c-50.667,0-91.888,28.474-91.888,79.141
	l16.34,207.493h127.096v-55.041c0-19.131,9.48-36.042,23.996-46.303l16.344-18.87L241.018,111.44L241.018,111.44z"/>
<path style="fill:#B55C3F;" d="M40.901,127.78v191.152h32.681V127.78c0.003-59.778,33.826-95.481,75.547-95.481
	C89.356,32.298,40.901,68.008,40.901,127.78z"/>
<path style="fill:#782E14;" d="M257.358,127.78c0-59.773-48.455-95.481-108.229-95.481c41.717,0,75.536,35.694,75.547,95.454
	c0,0.028,0,89.843,0,89.843c9.238-6.533,20.506-10.385,32.681-10.385V127.78H257.358z"/>
<polygon style="fill:#F98459;" points="34.3,433.364 39.87,503.83 72.551,503.83 92.73,468.597 66.981,433.364 "/>
<polygon style="fill:#DA592C;" points="445.018,474.758 423.231,489.294 445.018,503.83 477.699,503.83 477.699,474.758 "/>
<polygon style="fill:#F37143;" points="252.815,474.758 149.129,433.364 66.981,433.364 72.551,503.83 149.129,503.83 
	149.129,462.435 252.815,503.83 445.018,503.83 445.018,474.758 "/>
<rect x="129.078" y="8.17" style="fill:#B55C3F;" width="40.095" height="118.893"/>
<path d="M477.699,466.589h-0.864V430.3c0-3.622-2.385-6.811-5.858-7.836l-164.29-48.473c-22.31-6.582-41.159-31.796-41.159-55.059
	V138.674c0-53.703-36.698-100.134-88.182-112.931V8.17c0-4.512-3.658-8.17-8.17-8.17h-40.095c-4.512,0-8.17,3.658-8.17,8.17v17.556
	C69.53,38.527,32.73,85.258,32.73,138.674v286.678c-1.687,0.331-3.244,1.184-4.429,2.467c-1.546,1.674-2.324,3.917-2.144,6.189
	l5.569,70.466c0.336,4.25,3.881,7.526,8.145,7.526h109.26c4.512,0,8.17-3.658,8.17-8.17v-29.335l92.487,36.924
	c0.964,0.385,1.991,0.583,3.03,0.583H477.7c4.512,0,8.17-3.658,8.17-8.17V474.76C485.869,470.247,482.211,466.589,477.699,466.589z
	 M302.063,389.662l158.431,46.746v30.181H254.386l-97.087-38.761v-76.215c0-4.512-3.658-8.17-8.17-8.17
	c-4.512,0-8.17,3.658-8.17,8.17v73.58H49.07v-98.09h151.606c4.512,0,8.17-3.658,8.17-8.17v-55.041
	c0-23.964,17.471-43.912,40.341-47.809v102.85C249.188,349.331,272.908,381.061,302.063,389.662z M137.252,16.34h23.755v102.557
	h-23.755V16.34z M120.911,42.657v84.409c0,4.512,3.658,8.17,8.17,8.17h11.877v151.015c0,4.512,3.658,8.17,8.17,8.17
	c4.512,0,8.17-3.658,8.17-8.17V135.238h11.877c4.512,0,8.17-3.658,8.17-8.17V42.659c42.165,12.33,71.841,51.232,71.841,96.014
	v60.899c-31.914,4.033-56.682,31.328-56.682,64.318v46.871H49.07V138.674C49.07,94.135,78.827,55.009,120.911,42.657z
	 M469.529,495.66H254.386l-102.228-40.812c-2.518-1.005-5.368-0.697-7.611,0.824c-2.244,1.52-3.587,4.054-3.587,6.764v33.224H47.42
	l-4.277-54.126h104.416l102.228,40.813c0.964,0.385,1.991,0.583,3.03,0.583H469.53v12.73H469.529z"/>
</svg>