<?xml version="1.0" encoding="iso-8859-1"?>
<!-- Uploaded to: SVG Repo, www.svgrepo.com, Generator: SVG Repo Mixer Tools -->
<svg height="800px" width="800px" version="1.1" id="Capa_1" xmlns="http://www.w3.org/2000/svg" xmlns:xlink="http://www.w3.org/1999/xlink" 
	 viewBox="0 0 396.227 396.227" xml:space="preserve">
<g>
	<path style="fill:#FFCC66;" d="M90.638,115.822c0-6.088-4.954-11.04-11.043-11.04c-6.088,0-11.041,4.952-11.041,11.04v88.396
		h22.084V115.822z"/>
	<path style="fill:#FFCC66;" d="M122.72,105.799c0-6.088-4.953-11.041-11.041-11.041c-6.088,0-11.041,4.953-11.041,11.041v98.42
		h22.082V105.799z"/>
	<path style="fill:#FFCC66;" d="M327.674,31.065c0-6.088-4.953-11.04-11.041-11.04c-6.09,0-11.043,4.952-11.043,11.04v88.396h22.084
		V31.065z"/>
	<path style="fill:#FFCC66;" d="M295.59,21.041c0-6.088-4.953-11.041-11.041-11.041c-6.088,0-11.041,4.953-11.041,11.041v98.42
		h22.082V21.041z"/>
	<polygon style="fill:#CC9933;" points="237.488,282.627 363.689,282.627 360.348,256.279 240.83,256.279 	"/>
	<polygon style="fill:#FFCC66;" points="31.268,377.385 30.147,386.227 161.128,386.227 160.007,377.385 	"/>
	<polygon style="fill:#CC9933;" points="155.396,341.037 35.879,341.037 32.537,367.385 158.738,367.385 	"/>
	<path style="fill:#FFCC66;" d="M241.426,203.209v43.07h118.328V66.012c0-6.088-4.953-11.041-11.039-11.041
		c-6.088,0-11.041,4.953-11.041,11.041v53.449h6.039c2.762,0,5,2.238,5,5c0,2.761-2.238,5-5,5h-86.246c-2.762,0-5-2.239-5-5
		c0-2.762,2.238-5,5-5h6.041V49.244c0-6.088-4.953-11.041-11.039-11.041c-6.09,0-11.043,4.953-11.043,11.041v101.597
		c0,2.761-2.238,5-5,5c-1.381,0-2.631-0.56-3.535-1.464l-23.879-23.879c-5.27-5.268-13.844-5.268-19.113,0.002
		c-2.553,2.552-3.959,5.945-3.959,9.555c0,3.609,1.406,7.004,3.959,9.556l50.059,50.061
		C240.864,200.576,241.426,201.827,241.426,203.209z M327.783,150.905c0.93-0.931,2.221-1.47,3.529-1.47
		c1.32,0,2.611,0.539,3.541,1.47c0.93,0.931,1.459,2.21,1.459,3.53c0,1.32-0.529,2.609-1.459,3.539
		c-0.93,0.931-2.221,1.461-3.541,1.461c-1.309,0-2.6-0.53-3.529-1.461c-0.93-0.93-1.471-2.219-1.471-3.539
		C326.312,153.115,326.853,151.836,327.783,150.905z M327.783,175.445c0.93-0.93,2.221-1.46,3.529-1.46
		c1.32,0,2.611,0.53,3.541,1.46c0.93,0.93,1.459,2.221,1.459,3.529c0,1.32-0.529,2.611-1.459,3.541
		c-0.93,0.93-2.221,1.459-3.541,1.459c-1.309,0-2.6-0.529-3.529-1.459c-0.93-0.93-1.471-2.221-1.471-3.541
		C326.312,177.666,326.853,176.375,327.783,175.445z M327.783,199.985c0.93-0.931,2.221-1.46,3.529-1.46
		c1.32,0,2.611,0.529,3.541,1.46c0.93,0.931,1.459,2.22,1.459,3.54c0,1.311-0.529,2.6-1.459,3.529
		c-0.93,0.931-2.221,1.471-3.541,1.471c-1.309,0-2.6-0.54-3.529-1.471c-0.93-0.93-1.471-2.219-1.471-3.529
		C326.312,202.205,326.853,200.916,327.783,199.985z M307.293,150.905c0.93-0.931,2.221-1.47,3.539-1.47
		c1.32,0,2.611,0.539,3.531,1.47c0.939,0.931,1.469,2.22,1.469,3.53c0,1.32-0.529,2.609-1.469,3.539
		c-0.93,0.931-2.211,1.461-3.531,1.461c-1.318,0-2.609-0.53-3.539-1.461c-0.93-0.93-1.461-2.219-1.461-3.539
		C305.832,153.125,306.363,151.836,307.293,150.905z M307.293,175.445c0.93-0.93,2.221-1.471,3.539-1.471
		c1.32,0,2.602,0.541,3.531,1.471c0.939,0.93,1.469,2.221,1.469,3.54c0,1.31-0.529,2.601-1.469,3.53
		c-0.93,0.93-2.211,1.459-3.531,1.459c-1.318,0-2.609-0.529-3.539-1.459c-0.93-0.93-1.461-2.221-1.461-3.53
		C305.832,177.666,306.363,176.375,307.293,175.445z M307.293,199.985c0.93-0.931,2.221-1.46,3.539-1.46
		c1.32,0,2.602,0.529,3.531,1.46c0.939,0.931,1.469,2.22,1.469,3.54c0,1.311-0.529,2.6-1.469,3.529
		c-0.93,0.931-2.221,1.471-3.531,1.471c-1.318,0-2.609-0.54-3.539-1.471c-0.93-0.93-1.461-2.219-1.461-3.529
		C305.832,202.205,306.363,200.916,307.293,199.985z M286.812,150.905c0.93-0.931,2.221-1.47,3.531-1.47
		c1.318,0,2.609,0.539,3.539,1.47c0.93,0.931,1.461,2.22,1.461,3.53c0,1.32-0.531,2.609-1.461,3.539
		c-0.93,0.931-2.221,1.461-3.539,1.461c-1.311,0-2.602-0.53-3.531-1.461c-0.93-0.93-1.469-2.219-1.469-3.539
		C285.344,153.125,285.883,151.836,286.812,150.905z M286.812,175.445c0.93-0.93,2.221-1.471,3.531-1.471
		c1.318,0,2.609,0.541,3.539,1.471c0.93,0.93,1.461,2.221,1.461,3.529c0,1.32-0.531,2.611-1.461,3.541
		c-0.93,0.93-2.221,1.459-3.539,1.459c-1.311,0-2.602-0.529-3.531-1.459c-0.93-0.93-1.469-2.221-1.469-3.541
		C285.344,177.666,285.883,176.375,286.812,175.445z M286.812,199.985c0.93-0.931,2.221-1.46,3.531-1.46
		c1.318,0,2.609,0.529,3.539,1.46c0.93,0.931,1.461,2.22,1.461,3.54c0,1.311-0.531,2.6-1.461,3.529
		c-0.93,0.931-2.221,1.471-3.539,1.471c-1.311,0-2.602-0.54-3.531-1.471c-0.93-0.93-1.469-2.219-1.469-3.529
		C285.344,202.205,285.883,200.916,286.812,199.985z M266.332,150.905c0.932-0.931,2.211-1.47,3.531-1.47
		c1.32,0,2.609,0.539,3.539,1.47c0.93,0.931,1.461,2.21,1.461,3.53c0,1.32-0.531,2.609-1.461,3.539
		c-0.93,0.931-2.219,1.461-3.539,1.461c-1.32,0-2.609-0.53-3.531-1.461c-0.939-0.93-1.469-2.219-1.469-3.539
		C264.863,153.115,265.392,151.825,266.332,150.905z M266.332,175.445c0.922-0.93,2.211-1.471,3.531-1.471
		c1.32,0,2.609,0.541,3.539,1.471s1.461,2.221,1.461,3.529c0,1.32-0.531,2.611-1.461,3.541c-0.94,0.93-2.219,1.47-3.539,1.47
		c-1.311,0-2.6-0.54-3.531-1.47c-0.939-0.93-1.469-2.221-1.469-3.541C264.863,177.666,265.392,176.375,266.332,175.445z
		 M266.332,199.985c0.932-0.931,2.211-1.46,3.531-1.46c1.32,0,2.609,0.529,3.539,1.46c0.93,0.931,1.461,2.22,1.461,3.54
		c0,1.311-0.531,2.6-1.461,3.529c-0.93,0.931-2.219,1.471-3.539,1.471c-1.32,0-2.609-0.54-3.531-1.471
		c-0.939-0.93-1.469-2.219-1.469-3.529C264.863,202.205,265.392,200.916,266.332,199.985z"/>
	<polygon style="fill:#FFCC66;" points="236.221,292.627 235.1,301.469 366.08,301.469 364.958,292.627 	"/>
	<path style="fill:#FFCC66;" d="M187.216,215.256l-23.879,23.879c-0.904,0.904-2.154,1.464-3.535,1.464c-2.762,0-5-2.239-5-5
		V134.002c0-6.088-4.954-11.041-11.043-11.041c-6.087,0-11.039,4.953-11.039,11.041v70.217h6.041c2.762,0,5,2.238,5,5
		c0,2.761-2.238,5-5,5H52.515c-2.762,0-5-2.239-5-5c0-2.762,2.238-5,5-5h6.039V150.77c0-6.088-4.953-11.041-11.041-11.041
		c-6.087,0-11.039,4.953-11.039,11.041v180.268h118.328v-43.07c0-1.382,0.561-2.633,1.468-3.538l50.059-50.061
		c2.553-2.552,3.958-5.946,3.958-9.556s-1.405-7.003-3.958-9.555C201.059,209.988,192.485,209.988,187.216,215.256z M68.444,291.812
		c-0.931,0.931-2.221,1.471-3.53,1.471c-1.32,0-2.61-0.54-3.54-1.471c-0.93-0.93-1.46-2.219-1.46-3.529c0-1.32,0.53-2.609,1.46-3.54
		c0.93-0.931,2.22-1.46,3.54-1.46c1.31,0,2.6,0.529,3.53,1.46c0.93,0.931,1.47,2.22,1.47,3.54
		C69.914,289.594,69.374,290.883,68.444,291.812z M68.444,267.273c-0.931,0.93-2.221,1.459-3.53,1.459
		c-1.32,0-2.61-0.529-3.54-1.459c-0.93-0.93-1.46-2.221-1.46-3.541c0-1.309,0.53-2.6,1.46-3.529c0.93-0.93,2.22-1.46,3.54-1.46
		c1.31,0,2.6,0.53,3.53,1.46c0.93,0.93,1.47,2.221,1.47,3.529C69.914,265.053,69.374,266.344,68.444,267.273z M68.444,242.732
		c-0.931,0.931-2.221,1.461-3.53,1.461c-1.32,0-2.61-0.53-3.54-1.461c-0.93-0.93-1.46-2.219-1.46-3.539c0-1.32,0.53-2.6,1.46-3.53
		s2.22-1.47,3.54-1.47c1.31,0,2.6,0.539,3.53,1.47c0.93,0.931,1.47,2.21,1.47,3.53C69.914,240.514,69.374,241.803,68.444,242.732z
		 M88.933,291.812c-0.93,0.931-2.22,1.471-3.539,1.471c-1.311,0-2.601-0.54-3.53-1.471c-0.94-0.93-1.47-2.219-1.47-3.529
		c0-1.32,0.529-2.609,1.47-3.54c0.93-0.931,2.21-1.46,3.53-1.46c1.319,0,2.609,0.529,3.539,1.46c0.931,0.931,1.461,2.22,1.461,3.54
		C90.394,289.594,89.864,290.883,88.933,291.812z M88.933,267.273c-0.93,0.93-2.22,1.459-3.539,1.459
		c-1.32,0-2.601-0.529-3.53-1.459c-0.94-0.93-1.47-2.221-1.47-3.53c0-1.319,0.529-2.61,1.47-3.54c0.93-0.93,2.21-1.471,3.53-1.471
		c1.319,0,2.609,0.541,3.539,1.471c0.931,0.93,1.461,2.221,1.461,3.54C90.394,265.053,89.864,266.344,88.933,267.273z
		 M88.933,242.732c-0.93,0.931-2.22,1.461-3.539,1.461c-1.32,0-2.601-0.53-3.53-1.461c-0.94-0.93-1.47-2.219-1.47-3.539
		c0-1.311,0.529-2.6,1.47-3.53c0.92-0.931,2.21-1.47,3.53-1.47c1.319,0,2.609,0.539,3.539,1.47c0.931,0.931,1.461,2.22,1.461,3.53
		C90.394,240.514,89.864,241.803,88.933,242.732z M109.414,291.812c-0.93,0.931-2.22,1.471-3.53,1.471
		c-1.319,0-2.609-0.54-3.54-1.471c-0.93-0.93-1.46-2.219-1.46-3.529c0-1.32,0.53-2.609,1.46-3.54c0.931-0.931,2.221-1.46,3.54-1.46
		c1.311,0,2.601,0.529,3.53,1.46c0.93,0.931,1.47,2.22,1.47,3.54C110.884,289.594,110.344,290.883,109.414,291.812z
		 M109.414,267.273c-0.93,0.93-2.22,1.459-3.53,1.459c-1.319,0-2.609-0.529-3.54-1.459c-0.93-0.93-1.46-2.221-1.46-3.541
		c0-1.309,0.53-2.6,1.46-3.529c0.931-0.93,2.221-1.471,3.54-1.471c1.311,0,2.601,0.541,3.53,1.471c0.93,0.93,1.47,2.221,1.47,3.529
		C110.884,265.053,110.344,266.344,109.414,267.273z M109.414,242.732c-0.93,0.931-2.22,1.461-3.53,1.461
		c-1.319,0-2.609-0.53-3.54-1.461c-0.93-0.93-1.46-2.219-1.46-3.539c0-1.311,0.53-2.6,1.46-3.53c0.931-0.931,2.221-1.47,3.54-1.47
		c1.311,0,2.601,0.539,3.53,1.47c0.93,0.931,1.47,2.22,1.47,3.53C110.884,240.514,110.344,241.803,109.414,242.732z
		 M129.894,291.812c-0.921,0.931-2.211,1.471-3.53,1.471c-1.32,0-2.61-0.54-3.54-1.471c-0.93-0.93-1.46-2.219-1.46-3.529
		c0-1.32,0.53-2.609,1.46-3.54c0.93-0.931,2.22-1.46,3.54-1.46c1.319,0,2.6,0.529,3.53,1.46c0.939,0.931,1.47,2.22,1.47,3.54
		C131.364,289.594,130.834,290.883,129.894,291.812z M129.894,267.273c-0.931,0.93-2.221,1.47-3.53,1.47
		c-1.32,0-2.601-0.54-3.54-1.47c-0.93-0.93-1.46-2.221-1.46-3.541c0-1.309,0.53-2.6,1.46-3.529c0.93-0.93,2.22-1.471,3.54-1.471
		c1.319,0,2.609,0.541,3.53,1.471c0.939,0.93,1.47,2.221,1.47,3.529C131.364,265.053,130.834,266.344,129.894,267.273z
		 M129.894,242.732c-0.921,0.931-2.211,1.461-3.53,1.461c-1.32,0-2.61-0.53-3.54-1.461c-0.93-0.93-1.46-2.219-1.46-3.539
		c0-1.32,0.53-2.6,1.46-3.53c0.93-0.931,2.22-1.47,3.54-1.47c1.319,0,2.6,0.539,3.53,1.47c0.939,0.92,1.47,2.21,1.47,3.53
		C131.364,240.514,130.834,241.803,129.894,242.732z"/>
	<path style="fill:#663333;" d="M64.914,234.193c-1.32,0-2.61,0.539-3.54,1.47s-1.46,2.21-1.46,3.53c0,1.32,0.53,2.609,1.46,3.539
		c0.93,0.931,2.22,1.461,3.54,1.461c1.31,0,2.6-0.53,3.53-1.461c0.93-0.93,1.47-2.219,1.47-3.539c0-1.32-0.54-2.6-1.47-3.53
		C67.514,234.732,66.224,234.193,64.914,234.193z"/>
	<path style="fill:#663333;" d="M85.394,234.193c-1.32,0-2.61,0.539-3.53,1.47c-0.94,0.931-1.47,2.22-1.47,3.53
		c0,1.32,0.529,2.609,1.47,3.539c0.93,0.931,2.21,1.461,3.53,1.461c1.319,0,2.609-0.53,3.539-1.461
		c0.931-0.93,1.461-2.219,1.461-3.539c0-1.311-0.53-2.6-1.461-3.53C88.004,234.732,86.714,234.193,85.394,234.193z"/>
	<path style="fill:#663333;" d="M105.884,234.193c-1.319,0-2.609,0.539-3.54,1.47c-0.93,0.931-1.46,2.22-1.46,3.53
		c0,1.32,0.53,2.609,1.46,3.539c0.931,0.931,2.221,1.461,3.54,1.461c1.311,0,2.601-0.53,3.53-1.461c0.93-0.93,1.47-2.219,1.47-3.539
		c0-1.311-0.54-2.6-1.47-3.53C108.484,234.732,107.194,234.193,105.884,234.193z"/>
	<path style="fill:#663333;" d="M64.914,258.743c-1.32,0-2.61,0.53-3.54,1.46c-0.93,0.93-1.46,2.221-1.46,3.529
		c0,1.32,0.53,2.611,1.46,3.541c0.93,0.93,2.22,1.459,3.54,1.459c1.31,0,2.6-0.529,3.53-1.459c0.93-0.93,1.47-2.221,1.47-3.541
		c0-1.309-0.54-2.6-1.47-3.529C67.514,259.273,66.224,258.743,64.914,258.743z"/>
	<path style="fill:#663333;" d="M85.394,258.732c-1.32,0-2.601,0.541-3.53,1.471c-0.94,0.93-1.47,2.221-1.47,3.54
		c0,1.31,0.529,2.601,1.47,3.53c0.93,0.93,2.21,1.459,3.53,1.459c1.319,0,2.609-0.529,3.539-1.459
		c0.931-0.93,1.461-2.221,1.461-3.53c0-1.319-0.53-2.61-1.461-3.54C88.004,259.273,86.714,258.732,85.394,258.732z"/>
	<path style="fill:#663333;" d="M105.884,258.732c-1.319,0-2.609,0.541-3.54,1.471c-0.93,0.93-1.46,2.221-1.46,3.529
		c0,1.32,0.53,2.611,1.46,3.541c0.931,0.93,2.221,1.459,3.54,1.459c1.311,0,2.601-0.529,3.53-1.459c0.93-0.93,1.47-2.221,1.47-3.541
		c0-1.309-0.54-2.6-1.47-3.529C108.484,259.273,107.194,258.732,105.884,258.732z"/>
	<path style="fill:#663333;" d="M126.364,234.193c-1.32,0-2.61,0.539-3.54,1.47c-0.93,0.931-1.46,2.21-1.46,3.53
		c0,1.32,0.53,2.609,1.46,3.539c0.93,0.931,2.22,1.461,3.54,1.461c1.319,0,2.609-0.53,3.53-1.461c0.939-0.93,1.47-2.219,1.47-3.539
		c0-1.32-0.53-2.61-1.47-3.53C128.964,234.732,127.683,234.193,126.364,234.193z"/>
	<path style="fill:#663333;" d="M126.364,258.732c-1.32,0-2.61,0.541-3.54,1.471c-0.93,0.93-1.46,2.221-1.46,3.529
		c0,1.32,0.53,2.611,1.46,3.541c0.939,0.93,2.22,1.47,3.54,1.47c1.31,0,2.6-0.54,3.53-1.47c0.939-0.93,1.47-2.221,1.47-3.541
		c0-1.309-0.53-2.6-1.47-3.529C128.974,259.273,127.683,258.732,126.364,258.732z"/>
	<path style="fill:#663333;" d="M64.914,283.283c-1.32,0-2.61,0.529-3.54,1.46c-0.93,0.931-1.46,2.22-1.46,3.54
		c0,1.311,0.53,2.6,1.46,3.529c0.93,0.931,2.22,1.471,3.54,1.471c1.31,0,2.6-0.54,3.53-1.471c0.93-0.93,1.47-2.219,1.47-3.529
		c0-1.32-0.54-2.609-1.47-3.54C67.514,283.812,66.224,283.283,64.914,283.283z"/>
	<path style="fill:#663333;" d="M85.394,283.283c-1.32,0-2.601,0.529-3.53,1.46c-0.94,0.931-1.47,2.22-1.47,3.54
		c0,1.311,0.529,2.6,1.47,3.529c0.93,0.931,2.22,1.471,3.53,1.471c1.319,0,2.609-0.54,3.539-1.471
		c0.931-0.93,1.461-2.219,1.461-3.529c0-1.32-0.53-2.609-1.461-3.54C88.004,283.812,86.714,283.283,85.394,283.283z"/>
	<path style="fill:#663333;" d="M105.884,283.283c-1.319,0-2.609,0.529-3.54,1.46c-0.93,0.931-1.46,2.22-1.46,3.54
		c0,1.311,0.53,2.6,1.46,3.529c0.931,0.931,2.221,1.471,3.54,1.471c1.311,0,2.601-0.54,3.53-1.471c0.93-0.93,1.47-2.219,1.47-3.529
		c0-1.32-0.54-2.609-1.47-3.54C108.484,283.812,107.194,283.283,105.884,283.283z"/>
	<path style="fill:#663333;" d="M126.364,283.283c-1.32,0-2.61,0.529-3.54,1.46c-0.93,0.931-1.46,2.22-1.46,3.54
		c0,1.311,0.53,2.6,1.46,3.529c0.93,0.931,2.22,1.471,3.54,1.471c1.319,0,2.609-0.54,3.53-1.471c0.939-0.93,1.47-2.219,1.47-3.529
		c0-1.32-0.53-2.609-1.47-3.54C128.964,283.812,127.683,283.283,126.364,283.283z"/>
	<path style="fill:#663333;" d="M180.145,208.186l-15.344,15.343v-89.526c0-11.602-9.439-21.041-21.043-21.041
		c-4.051,0-7.825,1.171-11.039,3.163v-10.325c0-11.601-9.438-21.041-21.041-21.041c-9.135,0-16.905,5.861-19.808,14.011
		c-3.46-2.498-7.692-3.987-12.276-3.987c-11.602,0-21.041,9.438-21.041,21.04v17.07c-3.215-1.993-6.989-3.164-11.041-3.164
		c-11.6,0-21.039,9.439-21.039,21.041v184.951l-6.96,54.877c-0.181,1.424,0.26,2.857,1.209,3.935
		c0.949,1.077,2.315,1.694,3.751,1.694h142.328c1.436,0,2.802-0.617,3.751-1.694c0.949-1.077,1.39-2.511,1.209-3.935l-6.96-54.877
		v-45.683l48.598-48.599c4.441-4.441,6.888-10.346,6.888-16.627c0-6.281-2.446-12.186-6.888-16.627
		C204.23,199.02,189.312,199.018,180.145,208.186z M100.638,105.799c0-6.088,4.953-11.041,11.041-11.041
		c6.088,0,11.041,4.953,11.041,11.041v98.42h-22.082V105.799z M68.554,115.822c0-6.088,4.953-11.04,11.041-11.04
		c6.089,0,11.043,4.952,11.043,11.04v88.396H68.554V115.822z M35.879,341.037h119.518l3.342,26.348H32.537L35.879,341.037z
		 M30.147,386.227l1.121-8.842h128.738l1.121,8.842H30.147z M206.329,234.368l-50.059,50.061c-0.907,0.905-1.468,2.156-1.468,3.538
		v43.07H36.474V150.77c0-6.088,4.952-11.041,11.039-11.041c6.088,0,11.041,4.953,11.041,11.041v53.449h-6.039c-2.762,0-5,2.238-5,5
		c0,2.761,2.238,5,5,5h86.246c2.762,0,5-2.239,5-5c0-2.762-2.238-5-5-5h-6.041v-70.217c0-6.088,4.952-11.041,11.039-11.041
		c6.089,0,11.043,4.953,11.043,11.041v101.597c0,2.761,2.238,5,5,5c1.381,0,2.631-0.56,3.535-1.464l23.879-23.879
		c5.27-5.268,13.844-5.268,19.113,0.002c2.553,2.552,3.958,5.945,3.958,9.555S208.882,231.816,206.329,234.368z"/>
	<path style="fill:#663333;" d="M331.312,159.436c1.32,0,2.611-0.53,3.541-1.461c0.93-0.93,1.459-2.219,1.459-3.539
		c0-1.32-0.529-2.6-1.459-3.53c-0.93-0.931-2.221-1.47-3.541-1.47c-1.309,0-2.6,0.539-3.529,1.47c-0.93,0.931-1.471,2.21-1.471,3.53
		c0,1.32,0.541,2.609,1.471,3.539C328.713,158.905,330.004,159.436,331.312,159.436z"/>
	<path style="fill:#663333;" d="M310.832,159.436c1.32,0,2.602-0.53,3.531-1.461c0.939-0.93,1.469-2.219,1.469-3.539
		c0-1.311-0.529-2.6-1.469-3.53c-0.92-0.931-2.211-1.47-3.531-1.47c-1.318,0-2.609,0.539-3.539,1.47
		c-0.93,0.931-1.461,2.22-1.461,3.53c0,1.32,0.531,2.609,1.461,3.539C308.223,158.905,309.514,159.436,310.832,159.436z"/>
	<path style="fill:#663333;" d="M290.344,159.436c1.318,0,2.609-0.53,3.539-1.461c0.93-0.93,1.461-2.219,1.461-3.539
		c0-1.311-0.531-2.6-1.461-3.53c-0.93-0.931-2.221-1.47-3.539-1.47c-1.311,0-2.602,0.539-3.531,1.47
		c-0.93,0.931-1.469,2.22-1.469,3.53c0,1.32,0.539,2.609,1.469,3.539C287.742,158.905,289.033,159.436,290.344,159.436z"/>
	<path style="fill:#663333;" d="M331.312,183.975c1.32,0,2.611-0.529,3.541-1.459c0.93-0.93,1.459-2.221,1.459-3.541
		c0-1.309-0.529-2.6-1.459-3.529c-0.93-0.93-2.221-1.46-3.541-1.46c-1.309,0-2.6,0.53-3.529,1.46
		c-0.93,0.93-1.471,2.221-1.471,3.529c0,1.32,0.541,2.611,1.471,3.541C328.713,183.445,330.004,183.975,331.312,183.975z"/>
	<path style="fill:#663333;" d="M310.832,183.975c1.32,0,2.602-0.529,3.531-1.459c0.939-0.93,1.469-2.221,1.469-3.53
		c0-1.319-0.529-2.61-1.469-3.54c-0.93-0.93-2.211-1.471-3.531-1.471c-1.318,0-2.609,0.541-3.539,1.471
		c-0.93,0.93-1.461,2.221-1.461,3.54c0,1.31,0.531,2.601,1.461,3.53C308.223,183.445,309.514,183.975,310.832,183.975z"/>
	<path style="fill:#663333;" d="M290.344,183.975c1.318,0,2.609-0.529,3.539-1.459c0.93-0.93,1.461-2.221,1.461-3.541
		c0-1.309-0.531-2.6-1.461-3.529c-0.93-0.93-2.221-1.471-3.539-1.471c-1.311,0-2.602,0.541-3.531,1.471
		c-0.93,0.93-1.469,2.221-1.469,3.529c0,1.32,0.539,2.611,1.469,3.541C287.742,183.445,289.033,183.975,290.344,183.975z"/>
	<path style="fill:#663333;" d="M269.863,159.436c1.32,0,2.609-0.53,3.539-1.461c0.93-0.93,1.461-2.219,1.461-3.539
		c0-1.32-0.531-2.6-1.461-3.53c-0.93-0.931-2.219-1.47-3.539-1.47c-1.32,0-2.6,0.539-3.531,1.47c-0.939,0.92-1.469,2.21-1.469,3.53
		c0,1.32,0.529,2.609,1.469,3.539C267.254,158.905,268.543,159.436,269.863,159.436z"/>
	<path style="fill:#663333;" d="M269.863,183.985c1.32,0,2.6-0.54,3.539-1.47c0.93-0.93,1.461-2.221,1.461-3.541
		c0-1.309-0.531-2.6-1.461-3.529s-2.219-1.471-3.539-1.471c-1.32,0-2.609,0.541-3.531,1.471c-0.939,0.93-1.469,2.221-1.469,3.529
		c0,1.32,0.529,2.611,1.469,3.541C267.264,183.445,268.553,183.985,269.863,183.985z"/>
	<path style="fill:#663333;" d="M331.312,208.525c1.32,0,2.611-0.54,3.541-1.471c0.93-0.93,1.459-2.219,1.459-3.529
		c0-1.32-0.529-2.609-1.459-3.54c-0.93-0.931-2.221-1.46-3.541-1.46c-1.309,0-2.6,0.529-3.529,1.46
		c-0.93,0.931-1.471,2.22-1.471,3.54c0,1.311,0.541,2.6,1.471,3.529C328.713,207.985,330.004,208.525,331.312,208.525z"/>
	<path style="fill:#663333;" d="M310.832,208.525c1.311,0,2.602-0.54,3.531-1.471c0.939-0.93,1.469-2.219,1.469-3.529
		c0-1.32-0.529-2.609-1.469-3.54c-0.93-0.931-2.211-1.46-3.531-1.46c-1.318,0-2.609,0.529-3.539,1.46
		c-0.93,0.931-1.461,2.22-1.461,3.54c0,1.311,0.531,2.6,1.461,3.529C308.223,207.985,309.514,208.525,310.832,208.525z"/>
	<path style="fill:#663333;" d="M290.344,208.525c1.318,0,2.609-0.54,3.539-1.471c0.93-0.93,1.461-2.219,1.461-3.529
		c0-1.32-0.531-2.609-1.461-3.54c-0.93-0.931-2.221-1.46-3.539-1.46c-1.311,0-2.602,0.529-3.531,1.46
		c-0.93,0.931-1.469,2.22-1.469,3.54c0,1.311,0.539,2.6,1.469,3.529C287.742,207.985,289.033,208.525,290.344,208.525z"/>
	<path style="fill:#663333;" d="M269.863,208.525c1.32,0,2.609-0.54,3.539-1.471c0.93-0.93,1.461-2.219,1.461-3.529
		c0-1.32-0.531-2.609-1.461-3.54c-0.93-0.931-2.219-1.46-3.539-1.46c-1.32,0-2.6,0.529-3.531,1.46
		c-0.939,0.931-1.469,2.22-1.469,3.54c0,1.311,0.529,2.6,1.469,3.529C267.254,207.985,268.543,208.525,269.863,208.525z"/>
	<path style="fill:#663333;" d="M369.754,250.963V66.012c0-11.602-9.439-21.041-21.039-21.041c-4.053,0-7.827,1.171-11.041,3.164
		v-17.07c0-11.602-9.439-21.04-21.041-21.04c-4.584,0-8.817,1.489-12.277,3.987C301.453,5.861,293.683,0,284.549,0
		c-11.603,0-21.041,9.439-21.041,21.041v10.325c-3.215-1.992-6.988-3.163-11.039-3.163c-11.603,0-21.043,9.44-21.043,21.041v89.526
		l-15.344-15.343c-9.168-9.168-24.086-9.166-33.254,0c-4.441,4.441-6.889,10.346-6.889,16.627c0,6.281,2.447,12.186,6.889,16.627
		l48.598,48.599v45.683l-6.961,54.877c-0.18,1.424,0.26,2.857,1.209,3.935c0.949,1.077,2.316,1.694,3.752,1.694h142.328
		c1.436,0,2.801-0.617,3.75-1.694c0.949-1.077,1.391-2.511,1.209-3.935L369.754,250.963z M363.689,282.627H237.488l3.342-26.348
		h119.518L363.689,282.627z M305.59,31.065c0-6.088,4.953-11.04,11.043-11.04c6.088,0,11.041,4.952,11.041,11.04v88.396H305.59
		V31.065z M273.508,21.041c0-6.088,4.953-11.041,11.041-11.041c6.088,0,11.041,4.953,11.041,11.041v98.42h-22.082V21.041z
		 M189.898,149.61c-2.553-2.552-3.959-5.946-3.959-9.556c0-3.609,1.406-7.003,3.959-9.555c5.27-5.27,13.844-5.27,19.113-0.002
		l23.879,23.879c0.904,0.904,2.154,1.464,3.535,1.464c2.762,0,5-2.239,5-5V49.244c0-6.088,4.953-11.041,11.043-11.041
		c6.086,0,11.039,4.953,11.039,11.041v70.217h-6.041c-2.762,0-5,2.238-5,5c0,2.761,2.238,5,5,5h86.246c2.762,0,5-2.239,5-5
		c0-2.762-2.238-5-5-5h-6.039V66.012c0-6.088,4.953-11.041,11.041-11.041c6.086,0,11.039,4.953,11.039,11.041v180.268H241.426
		v-43.07c0-1.382-0.561-2.633-1.469-3.538L189.898,149.61z M235.1,301.469l1.121-8.842h128.737l1.122,8.842H235.1z"/>
</g>
</svg>