<?xml version="1.0" encoding="iso-8859-1"?>
<!-- Uploaded to: SVG Repo, www.svgrepo.com, Generator: SVG Repo Mixer Tools -->
<svg height="800px" width="800px" version="1.1" id="Layer_1" xmlns="http://www.w3.org/2000/svg" xmlns:xlink="http://www.w3.org/1999/xlink" 
	 viewBox="0 0 503.614 503.614" xml:space="preserve">
<g transform="translate(1 1)">
	<g>
		<path style="fill:#FFE100;" d="M494.217,418.676c0-52.039-7.554-93.167-15.948-121.705
			c-13.43-47.843-47.003-88.131-93.167-107.436c-26.02-10.911-52.879-16.787-75.541-20.144v106.597
			c0,32.734-26.02,58.754-58.754,58.754l0,0c-32.734,0-58.754-26.02-58.754-58.754V170.23c-20.984,2.518-45.325,7.554-68.826,16.787
			c-49.521,19.305-86.452,62.111-100.721,114.151c-7.554,27.698-15.108,67.148-15.108,117.508c0,0-2.518,75.541,67.148,75.541
			h176.262h176.262C496.735,494.217,494.217,418.676,494.217,418.676"/>
		<path style="fill:#FFE100;" d="M401.889,275.987c-5.036,0-8.393-3.357-8.393-8.393V158.479
			c0-73.862-60.433-134.295-134.295-134.295S124.905,84.617,124.905,158.479v109.115c0,5.036-3.357,8.393-8.393,8.393
			c-5.036,0-8.393-3.357-8.393-8.393V158.479c0-83.095,67.987-151.082,151.082-151.082c83.934,0,151.082,67.987,151.082,151.082
			v109.115C410.282,272.63,406.925,275.987,401.889,275.987z"/>
	</g>
	<path style="fill:#FDCC00;" d="M133.299,284.381c0,14.269-10.911,25.18-25.18,25.18s-25.18-10.911-25.18-25.18
		s10.911-25.18,25.18-25.18S133.299,270.112,133.299,284.381"/>
	<path style="fill:#FFA800;" d="M494.217,423.712c0-52.039-7.554-93.167-15.948-121.705c-13.43-47.843-47.003-88.131-93.167-107.436
		c-26.02-10.911-52.879-16.787-75.541-20.144v4.197c16.787,3.357,33.574,8.393,50.361,15.108
		c46.164,19.305,79.738,59.593,93.167,107.436c8.393,28.538,15.948,68.826,15.948,121.705c0,0,2.518,75.541-67.148,75.541h25.18
		C496.735,499.253,494.217,423.712,494.217,423.712"/>
	<path style="fill:#FFFFFF;" d="M7.397,418.676c0-52.039,8.393-93.167,15.948-121.705c13.43-47.003,47.003-87.292,93.167-106.597
		c26.02-10.911,52.879-16.787,75.541-20.144v4.197c-16.787,3.357-33.574,8.393-50.361,15.108
		c-46.164,19.305-79.738,59.593-93.167,107.436c-7.554,28.538-15.948,69.666-15.948,121.705c0,0-2.518,75.541,67.148,75.541h-25.18
		C5.718,494.217,7.397,418.676,7.397,418.676"/>
	<g>
		<path style="fill:#FDCC00;" d="M418.676,284.381c0,14.269-10.911,25.18-25.18,25.18s-25.18-10.911-25.18-25.18
			s10.911-25.18,25.18-25.18S418.676,270.112,418.676,284.381"/>
		<path style="fill:#FDCC00;" d="M250.807,334.741L250.807,334.741c-32.734,0-58.754-26.02-58.754-58.754V162.676
			c0-7.554,5.875-12.59,12.59-12.59h91.489c7.554,0,12.59,5.875,12.59,12.59v113.311
			C309.561,308.722,283.541,334.741,250.807,334.741"/>
	</g>
	<path d="M250.807,343.135c-36.931,0-67.148-30.216-67.148-67.148V162.676c0-11.751,9.233-20.984,20.984-20.984h91.489
		c11.751,0,20.984,9.233,20.984,20.984v113.311C317.954,312.918,287.738,343.135,250.807,343.135z M205.482,158.479
		c-2.518,0-4.197,1.679-4.197,4.197v113.311c0,27.698,22.662,50.361,50.361,50.361c27.698,0,50.361-22.662,50.361-50.361V162.676
		c0-2.518-1.679-4.197-4.197-4.197H205.482z"/>
	<path d="M427.069,502.61H74.544c-21.823,0-39.449-6.715-52.039-20.144c-24.341-24.341-23.502-62.111-23.502-63.79
		c0-42.807,5.036-83.095,15.108-119.187c15.108-55.397,54.557-99.882,106.597-120.026c20.984-8.393,44.485-14.269,70.505-17.626
		l9.233-1.679v115.83c0,27.698,22.662,50.361,50.361,50.361c27.698,0,50.361-22.662,50.361-50.361v-114.99l9.233,1.679
		c29.377,4.197,55.397,10.911,78.059,20.144c47.843,20.144,83.095,61.272,97.364,112.472
		c11.751,36.931,16.787,78.898,16.787,123.384c0,1.679,0.839,39.449-23.502,63.79C466.518,495.895,448.892,502.61,427.069,502.61z
		 M183.659,180.302c-20.984,3.357-40.289,8.393-57.075,15.108c-47.003,17.626-82.256,58.754-96.525,108.275
		c-9.233,34.413-14.269,73.862-14.269,114.99c0,0.839-0.839,32.734,18.466,52.039c10.072,10.072,23.502,15.108,40.289,15.108
		h352.525c16.787,0,30.216-5.036,40.289-15.108c19.305-19.305,18.466-51.2,18.466-52.039c0-42.807-5.036-83.095-15.108-119.187
		c-13.429-47.003-45.325-83.934-88.131-101.561c-19.305-8.393-40.289-14.269-64.63-17.626v95.685
		c0,36.931-30.216,67.148-67.148,67.148s-67.148-30.216-67.148-67.148V180.302z"/>
	<path d="M275.987,275.987h-50.361c-5.036,0-8.393-3.357-8.393-8.393c0-5.036,3.357-8.393,8.393-8.393h50.361
		c5.036,0,8.393,3.357,8.393,8.393C284.381,272.63,281.023,275.987,275.987,275.987z"/>
	<path d="M275.987,242.413h-50.361c-5.036,0-8.393-3.357-8.393-8.393c0-5.036,3.357-8.393,8.393-8.393h50.361
		c5.036,0,8.393,3.357,8.393,8.393C284.381,239.056,281.023,242.413,275.987,242.413z"/>
	<path d="M275.987,208.84h-50.361c-5.036,0-8.393-3.357-8.393-8.393s3.357-8.393,8.393-8.393h50.361
		c5.036,0,8.393,3.357,8.393,8.393S281.023,208.84,275.987,208.84z"/>
	<path d="M393.495,267.594c-5.036,0-8.393-3.357-8.393-8.393V150.085c0-73.862-60.433-134.295-134.295-134.295
		S116.512,76.223,116.512,150.085V259.2c0,5.036-3.357,8.393-8.393,8.393c-5.036,0-8.393-3.357-8.393-8.393V150.085
		c0-83.095,67.987-151.082,151.082-151.082c83.934,0,151.082,67.987,151.082,151.082V259.2
		C401.889,264.236,398.531,267.594,393.495,267.594z"/>
	<path d="M108.118,317.954c-18.466,0-33.574-15.108-33.574-33.574s15.108-33.574,33.574-33.574s33.574,15.108,33.574,33.574
		S126.584,317.954,108.118,317.954z M108.118,267.594c-9.233,0-16.787,7.554-16.787,16.787s7.554,16.787,16.787,16.787
		s16.787-7.554,16.787-16.787C124.905,275.148,117.351,267.594,108.118,267.594z"/>
	<path d="M393.495,317.954c-18.466,0-33.574-15.108-33.574-33.574s15.108-33.574,33.574-33.574s33.574,15.108,33.574,33.574
		S411.961,317.954,393.495,317.954z M393.495,267.594c-9.233,0-16.787,7.554-16.787,16.787s7.554,16.787,16.787,16.787
		c9.233,0,16.787-7.554,16.787-16.787C410.282,275.148,402.728,267.594,393.495,267.594z"/>
</g>
</svg>