<?xml version="1.0" encoding="iso-8859-1"?>
<!-- Uploaded to: SVG Repo, www.svgrepo.com, Generator: SVG Repo Mixer Tools -->
<svg version="1.1" id="Layer_1" xmlns="http://www.w3.org/2000/svg" xmlns:xlink="http://www.w3.org/1999/xlink" 
	 viewBox="0 0 512 512" xml:space="preserve">
<path style="fill:#C60024;" d="M132.354,84.138c-11.924,0-22.275,6.72-27.483,16.578c-0.01,0.019-0.022,0.038-0.032,0.058
	c-5.197-9.889-15.568-16.635-27.515-16.635c-17.156,0-30.594,13.908-30.594,31.066c0,8.121,2.356,12.706,4.263,16.568
	c7.871,15.946,53.847,54.044,53.847,54.044s0.011-0.009,0.032-0.027c1.373-1.133,46.424-38.422,53.814-54.017
	c1.833-3.869,4.328-8.804,4.328-16.568C163.014,98.046,149.51,84.138,132.354,84.138z"/>
<g>
	<path style="fill:#6A563D;" d="M112.76,374.579c-9.404-45.767-48.672-80.635-96.549-83.329c-3.855,24.191-7.228,52.94-8.269,83.329
		c-0.215,6.25-0.338,12.566-0.338,18.93h107.282C114.75,387.037,114.019,380.711,112.76,374.579z"/>
	<path style="fill:#6A563D;" d="M503.322,374.579c-5.377-45.485-31.153-69.375-74.984-70.968
		c-8.112-0.295-15.799-0.541-23.144-0.787c-3.162,34.635-82.679,35.885-142.41,35.885c-34.96,0-52.439,19.358-60.991,35.869
		c-3.969,7.663-6.017,14.713-6.995,18.93h309.597l0,0C504.396,386.825,504.026,380.527,503.322,374.579z"/>
</g>
<path style="fill:#B39A7C;" d="M178.268,221.747c0,0-12.738,11.288-75.936,11.288c-39.028,0-71.53-11.288-71.53-11.288
	s-7.991,28.066-14.593,69.504c47.877,2.694,87.146,37.561,96.549,83.329c1.26,6.132,1.99,12.457,2.127,18.93h79.913
	c0.977-4.217,3.026-11.267,6.995-18.93c8.552-16.512,26.031-35.869,60.991-35.869c59.731,0,139.248-1.251,142.41-35.885
	C320.95,300.004,282.341,297.222,178.268,221.747z"/>
<path style="fill:#A50020;" d="M132.354,84.138c-11.924,0-22.275,6.72-27.483,16.578v85.074
	c1.373-1.133,46.424-38.422,53.814-54.017c1.833-3.869,4.328-8.804,4.328-16.568C163.014,98.046,149.51,84.138,132.354,84.138z"/>
<rect x="7.604" y="393.507" style="fill:#3E3D43;" width="496.789" height="34.352"/>
<g>
	<path style="fill:#2E2E30;" d="M7.604,374.579v18.93c0-6.364,0.123-12.678,0.338-18.93H7.604z"/>
	<path style="fill:#2E2E30;" d="M503.322,374.579c0.703,5.946,1.074,12.245,1.074,18.93v-18.93H503.322z"/>
</g>
<path style="fill:#A78967;" d="M112.76,374.579c1.26,6.132,1.99,12.457,2.127,18.93H194.8c0.977-4.217,3.026-11.267,6.995-18.93
	H112.76z"/>
<g>
	<path style="fill:#554432;" d="M7.942,374.579c-0.215,6.25-0.338,12.566-0.338,18.93h107.282
		c-0.136-6.472-0.867-12.797-2.127-18.93H7.942z"/>
	<path style="fill:#554432;" d="M201.794,374.579c-3.969,7.663-6.017,14.713-6.995,18.93h309.597l0,0
		c0-6.683-0.37-12.982-1.074-18.93H201.794z"/>
</g>
<path d="M44.173,135.137c8.348,16.911,50.98,52.528,55.814,56.533l4.839,4.011l4.849-3.999c4.878-4.021,47.882-39.773,55.882-56.654
	l0.211-0.445c1.931-4.062,4.849-10.2,4.849-19.379c0-21.322-17.166-38.669-38.264-38.669c-10.525,0-20.361,4.229-27.515,11.484
	c-7.155-7.254-16.99-11.484-27.515-11.484c-21.063,0-38.199,17.347-38.199,38.669c0,9.716,2.845,15.473,4.921,19.678L44.173,135.137
	z M77.324,91.742c8.746,0,16.709,4.816,20.784,12.569l6.732,12.808l6.731-12.808c4.074-7.752,12.038-12.568,20.784-12.568
	c12.929,0,23.056,10.306,23.056,23.462c0,5.748-1.716,9.358-3.376,12.849l-0.22,0.463c-4.499,9.498-29.406,32.51-46.963,47.377
	c-17.456-14.852-42.293-37.871-47.04-47.487l-0.129-0.262c-1.722-3.486-3.349-6.778-3.349-12.942
	C54.333,102.047,64.432,91.742,77.324,91.742z"/>
<path d="M511.827,385.905c-1.11-26.876-8.178-48.151-21.089-63.283c-14.229-16.676-35.13-25.628-62.122-26.61
	c-6.231-0.226-12.211-0.424-17.978-0.614l-8.986-0.3c-78.662-2.652-116.215-5.026-218.919-79.507l-4.924-4.488l-4.457,4.818
	c-1.754,1.083-17.169,9.511-71.018,9.511c-37.184,0-68.725-10.76-69.034-10.868l-7.604-2.641l-2.204,7.742
	c-0.312,1.099-7.339,25.972-13.677,63.61l-0.031-0.002l-1.081,6.781l-1.325,8.316l0.051,0.003
	c-4.512,30.448-6.983,59.819-7.368,87.532H0v7.604v7.604v34.352h512v-34.352v-7.604v-7.604H511.827z M496.626,385.905H205.014
	c0.047-0.127,0.09-0.25,0.139-0.378c0.077-0.205,0.157-0.412,0.237-0.618c0.15-0.387,0.306-0.779,0.466-1.173
	c0.086-0.212,0.172-0.425,0.262-0.639c0.181-0.434,0.371-0.871,0.565-1.311c0.075-0.17,0.146-0.339,0.223-0.51
	c0.275-0.609,0.56-1.223,0.86-1.84c0.056-0.115,0.117-0.23,0.172-0.345c0.247-0.503,0.502-1.007,0.767-1.514
	c0.113-0.215,0.23-0.43,0.346-0.645c0.222-0.414,0.449-0.827,0.683-1.243c0.133-0.236,0.269-0.472,0.406-0.709
	c0.238-0.411,0.485-0.821,0.736-1.233c0.137-0.225,0.273-0.449,0.414-0.674c0.306-0.489,0.625-0.975,0.949-1.463
	c0.094-0.141,0.182-0.283,0.279-0.424c0.421-0.619,0.857-1.237,1.308-1.851c0.13-0.177,0.268-0.353,0.4-0.529
	c0.332-0.442,0.669-0.882,1.018-1.32c0.179-0.225,0.364-0.448,0.546-0.671c0.322-0.393,0.652-0.784,0.987-1.172
	c0.197-0.227,0.395-0.454,0.597-0.68c0.358-0.4,0.727-0.797,1.101-1.191c0.188-0.198,0.37-0.396,0.562-0.593
	c0.542-0.556,1.098-1.105,1.673-1.645c0.038-0.035,0.074-0.072,0.113-0.107c0.591-0.553,1.204-1.096,1.831-1.63
	c0.211-0.179,0.43-0.355,0.645-0.532c0.442-0.365,0.89-0.727,1.349-1.083c0.254-0.197,0.514-0.391,0.775-0.585
	c0.449-0.335,0.907-0.663,1.373-0.988c0.266-0.185,0.53-0.37,0.801-0.552c0.522-0.35,1.058-0.689,1.602-1.025
	c0.224-0.139,0.442-0.282,0.669-0.418c0.771-0.461,1.56-0.908,2.372-1.339c0.164-0.087,0.337-0.167,0.503-0.252
	c0.659-0.341,1.329-0.674,2.017-0.994c0.298-0.139,0.604-0.27,0.906-0.405c0.58-0.258,1.168-0.509,1.768-0.75
	c0.336-0.135,0.674-0.268,1.016-0.397c0.61-0.232,1.233-0.454,1.862-0.669c0.332-0.114,0.659-0.229,0.996-0.338
	c0.773-0.248,1.563-0.481,2.364-0.703c0.204-0.057,0.399-0.12,0.605-0.174c1.01-0.269,2.045-0.513,3.101-0.737
	c0.291-0.062,0.592-0.113,0.886-0.17c0.783-0.155,1.574-0.301,2.383-0.431c0.395-0.064,0.798-0.119,1.199-0.176
	c0.742-0.105,1.495-0.202,2.26-0.286c0.424-0.047,0.849-0.092,1.278-0.132c0.811-0.075,1.638-0.134,2.473-0.184
	c0.387-0.023,0.768-0.053,1.161-0.071c1.231-0.056,2.48-0.091,3.762-0.091c1.115,0,2.23-0.001,3.345-0.002
	c0.351,0,0.701-0.002,1.05-0.002c0.78-0.002,1.559-0.003,2.339-0.005c0.374-0.001,0.747-0.003,1.121-0.004
	c0.741-0.003,1.483-0.006,2.223-0.009c0.433-0.002,0.866-0.005,1.299-0.007c0.679-0.004,1.358-0.008,2.036-0.013
	c0.466-0.003,0.932-0.007,1.397-0.011c0.64-0.005,1.279-0.01,1.919-0.016c0.5-0.005,0.998-0.01,1.496-0.015
	c0.608-0.006,1.217-0.013,1.825-0.02c0.504-0.006,1.007-0.012,1.51-0.019c0.608-0.008,1.216-0.016,1.823-0.025
	c0.496-0.007,0.992-0.015,1.486-0.023c0.611-0.01,1.223-0.02,1.833-0.031c0.494-0.009,0.987-0.018,1.481-0.027
	c0.611-0.012,1.221-0.024,1.83-0.036c0.485-0.01,0.969-0.02,1.454-0.031c0.613-0.014,1.225-0.028,1.836-0.044
	c0.485-0.012,0.969-0.023,1.452-0.036c0.618-0.016,1.236-0.033,1.853-0.051c0.464-0.013,0.929-0.026,1.392-0.04
	c0.645-0.019,1.288-0.041,1.93-0.061c0.435-0.014,0.871-0.027,1.305-0.043c0.696-0.023,1.388-0.05,2.08-0.075
	c0.378-0.014,0.757-0.027,1.134-0.042c0.787-0.03,1.569-0.063,2.353-0.095c0.284-0.012,0.57-0.022,0.854-0.035
	c1.064-0.046,2.124-0.094,3.18-0.145c0.158-0.008,0.314-0.016,0.472-0.024c0.896-0.044,1.791-0.089,2.683-0.137
	c0.333-0.018,0.663-0.038,0.995-0.056c0.711-0.04,1.421-0.079,2.128-0.121c0.395-0.023,0.789-0.049,1.183-0.073
	c0.637-0.04,1.274-0.078,1.907-0.12c0.422-0.027,0.841-0.057,1.261-0.085c0.605-0.041,1.211-0.082,1.813-0.126
	c0.432-0.03,0.861-0.063,1.291-0.095c0.583-0.044,1.165-0.087,1.745-0.133c0.44-0.034,0.879-0.07,1.317-0.105
	c0.567-0.046,1.132-0.093,1.696-0.141c0.439-0.038,0.876-0.076,1.313-0.115c0.558-0.05,1.114-0.1,1.669-0.151
	c0.436-0.041,0.871-0.082,1.304-0.124c0.555-0.054,1.107-0.108,1.658-0.164c0.426-0.044,0.852-0.086,1.276-0.131
	c0.551-0.058,1.098-0.117,1.644-0.177c0.419-0.046,0.836-0.092,1.253-0.139c0.549-0.063,1.097-0.127,1.642-0.192
	c0.408-0.049,0.815-0.096,1.22-0.146c0.553-0.068,1.101-0.138,1.65-0.209c0.39-0.05,0.782-0.099,1.169-0.151
	c0.566-0.075,1.126-0.153,1.686-0.231c0.365-0.051,0.731-0.1,1.094-0.152c0.606-0.087,1.208-0.177,1.808-0.268
	c0.308-0.047,0.619-0.091,0.927-0.138c0.773-0.119,1.538-0.242,2.3-0.367c0.13-0.021,0.262-0.042,0.391-0.063
	c0.896-0.149,1.785-0.302,2.667-0.459c0.192-0.034,0.38-0.071,0.571-0.105c0.681-0.124,1.361-0.248,2.033-0.377
	c0.292-0.056,0.579-0.115,0.869-0.172c0.565-0.111,1.129-0.222,1.687-0.337c0.325-0.067,0.646-0.137,0.969-0.206
	c0.514-0.108,1.028-0.218,1.536-0.331c0.343-0.076,0.68-0.154,1.02-0.231c0.481-0.109,0.961-0.219,1.436-0.332
	c0.347-0.082,0.689-0.167,1.033-0.25c0.461-0.113,0.922-0.226,1.378-0.343c0.344-0.087,0.684-0.176,1.024-0.267
	c0.447-0.118,0.892-0.236,1.334-0.357c0.338-0.092,0.673-0.187,1.008-0.281c0.436-0.123,0.87-0.247,1.3-0.374
	c0.328-0.096,0.656-0.194,0.981-0.292c0.428-0.13,0.853-0.261,1.274-0.393c0.319-0.1,0.637-0.201,0.953-0.303
	c0.419-0.136,0.832-0.275,1.245-0.414c0.309-0.104,0.619-0.209,0.925-0.315c0.412-0.144,0.818-0.29,1.224-0.437
	c0.295-0.106,0.591-0.213,0.882-0.322c0.412-0.154,0.817-0.312,1.222-0.47c0.275-0.107,0.553-0.214,0.825-0.322
	c0.42-0.169,0.832-0.343,1.244-0.516c0.245-0.103,0.495-0.205,0.738-0.309c0.457-0.198,0.904-0.4,1.351-0.604
	c0.189-0.086,0.381-0.169,0.568-0.255c1.262-0.587,2.481-1.198,3.655-1.833c0.163-0.088,0.319-0.18,0.482-0.27
	c0.417-0.23,0.832-0.461,1.237-0.699c0.206-0.121,0.405-0.244,0.607-0.367c0.351-0.211,0.702-0.423,1.043-0.639
	c0.216-0.137,0.426-0.278,0.638-0.417c0.317-0.207,0.634-0.415,0.943-0.627c0.216-0.148,0.427-0.3,0.639-0.451
	c0.294-0.209,0.586-0.419,0.872-0.632c0.211-0.158,0.418-0.318,0.625-0.479c0.275-0.213,0.546-0.426,0.813-0.643
	c0.205-0.166,0.406-0.336,0.605-0.505c0.257-0.217,0.509-0.435,0.757-0.656c0.196-0.174,0.389-0.351,0.58-0.528
	c0.24-0.223,0.478-0.449,0.71-0.676c0.185-0.18,0.368-0.363,0.547-0.546c0.227-0.231,0.448-0.465,0.666-0.702
	c0.172-0.186,0.344-0.372,0.511-0.561c0.214-0.241,0.421-0.486,0.626-0.731c0.159-0.191,0.319-0.38,0.473-0.574
	c0.201-0.251,0.393-0.508,0.585-0.764c0.145-0.194,0.292-0.385,0.432-0.582c0.191-0.268,0.371-0.539,0.552-0.812
	c0.128-0.193,0.26-0.383,0.382-0.578c0.184-0.29,0.355-0.586,0.527-0.881c0.107-0.185,0.221-0.366,0.324-0.553
	c0.189-0.341,0.364-0.687,0.538-1.036c0.074-0.148,0.155-0.292,0.227-0.442c0.24-0.5,0.467-1.008,0.679-1.523
	c0.034-0.085,0.064-0.173,0.097-0.259c0.164-0.411,0.324-0.823,0.47-1.244c5.405,0.178,10.997,0.365,16.807,0.576
	C471.434,312.786,494.471,337.905,496.626,385.905z M36.14,231.328c12.219,3.432,37.36,9.312,66.194,9.312
	c45.912,0,66.62-5.86,75.424-9.883c4.488,3.227,8.854,6.317,13.109,9.28L171.7,263.639l11.806,9.586l19.958-24.578
	c3.585,2.402,7.083,4.698,10.514,6.91l-19.107,23.531l11.806,9.586l20.279-24.974c3.519,2.141,6.96,4.176,10.335,6.117
	l-19.25,23.707l11.806,9.586l20.982-25.84c50.841,26.698,87.506,30.67,143.466,32.779c-0.089,0.112-0.176,0.224-0.27,0.334
	c-0.121,0.143-0.241,0.286-0.367,0.428c-0.185,0.207-0.377,0.41-0.573,0.612c-0.127,0.131-0.251,0.264-0.383,0.392
	c-0.219,0.215-0.449,0.427-0.681,0.637c-0.123,0.111-0.24,0.224-0.366,0.334c-0.291,0.252-0.594,0.501-0.904,0.747
	c-0.079,0.063-0.153,0.128-0.233,0.191c-0.399,0.311-0.814,0.616-1.244,0.916c-0.067,0.047-0.14,0.092-0.208,0.139
	c-0.361,0.248-0.73,0.494-1.111,0.735c-0.143,0.09-0.293,0.178-0.439,0.268c-0.317,0.194-0.636,0.387-0.965,0.577
	c-0.172,0.098-0.35,0.196-0.525,0.293c-0.317,0.176-0.637,0.351-0.964,0.522c-0.189,0.098-0.38,0.196-0.573,0.293
	c-0.33,0.167-0.662,0.333-1.002,0.495c-0.198,0.094-0.396,0.189-0.597,0.282c-0.349,0.162-0.703,0.322-1.062,0.481
	c-0.201,0.089-0.402,0.177-0.606,0.265c-0.378,0.161-0.763,0.32-1.151,0.478c-0.194,0.078-0.385,0.158-0.581,0.235
	c-0.435,0.171-0.878,0.34-1.325,0.506c-0.157,0.059-0.311,0.119-0.469,0.176c-0.595,0.217-1.2,0.431-1.817,0.639
	c-0.014,0.005-0.028,0.01-0.043,0.015c-0.657,0.222-1.326,0.439-2.005,0.652c-0.033,0.01-0.069,0.02-0.102,0.031
	c-0.623,0.194-1.254,0.383-1.894,0.57c-0.166,0.049-0.337,0.095-0.505,0.143c-0.513,0.146-1.03,0.291-1.553,0.433
	c-0.212,0.057-0.427,0.113-0.64,0.169c-0.492,0.13-0.985,0.259-1.485,0.384c-0.228,0.058-0.458,0.114-0.688,0.17
	c-0.497,0.122-0.998,0.242-1.503,0.361c-0.233,0.055-0.466,0.108-0.702,0.162c-0.514,0.118-1.033,0.233-1.555,0.347
	c-0.229,0.05-0.458,0.1-0.688,0.149c-0.547,0.117-1.099,0.23-1.655,0.343c-0.209,0.043-0.417,0.085-0.627,0.128
	c-0.631,0.126-1.267,0.247-1.907,0.368c-0.134,0.025-0.267,0.052-0.401,0.076c-2.386,0.443-4.834,0.85-7.334,1.225
	c-0.156,0.023-0.314,0.046-0.471,0.069c-0.665,0.098-1.333,0.196-2.006,0.29c-0.216,0.03-0.434,0.06-0.651,0.089
	c-0.619,0.085-1.24,0.168-1.864,0.25c-0.241,0.031-0.483,0.062-0.724,0.093c-0.61,0.078-1.224,0.154-1.838,0.229
	c-0.245,0.029-0.491,0.06-0.736,0.088c-0.624,0.074-1.249,0.146-1.877,0.217c-0.233,0.026-0.466,0.053-0.7,0.079
	c-0.667,0.074-1.337,0.145-2.008,0.215c-0.193,0.02-0.384,0.041-0.577,0.061c-0.76,0.078-1.523,0.154-2.287,0.227
	c-0.105,0.01-0.211,0.021-0.316,0.031c-2.664,0.254-5.354,0.482-8.055,0.685c-0.167,0.012-0.334,0.024-0.501,0.036
	c-0.72,0.054-1.441,0.105-2.163,0.156c-0.219,0.015-0.438,0.029-0.656,0.045c-0.669,0.046-1.338,0.09-2.007,0.133
	c-0.249,0.016-0.5,0.031-0.749,0.048c-0.643,0.041-1.287,0.079-1.929,0.117c-0.26,0.015-0.518,0.03-0.778,0.046
	c-0.647,0.036-1.294,0.073-1.941,0.107c-0.242,0.013-0.484,0.026-0.726,0.039c-0.685,0.035-1.371,0.07-2.055,0.103
	c-0.202,0.01-0.404,0.02-0.604,0.029c-0.792,0.038-1.582,0.074-2.371,0.108c-0.087,0.004-0.174,0.008-0.261,0.012
	c-1.816,0.079-3.626,0.149-5.425,0.213c-0.029,0.001-0.058,0.002-0.087,0.003c-0.844,0.029-1.684,0.058-2.522,0.084
	c-0.181,0.006-0.361,0.011-0.541,0.016c-0.678,0.021-1.356,0.041-2.03,0.06c-0.254,0.007-0.508,0.014-0.761,0.02
	c-0.605,0.016-1.21,0.032-1.812,0.048c-0.272,0.007-0.543,0.013-0.814,0.019c-0.59,0.014-1.178,0.027-1.765,0.041
	c-0.267,0.006-0.533,0.011-0.799,0.017c-0.582,0.012-1.162,0.023-1.74,0.034c-0.272,0.005-0.544,0.01-0.816,0.015
	c-0.584,0.01-1.165,0.02-1.744,0.029c-0.243,0.004-0.488,0.008-0.73,0.012c-0.664,0.01-1.323,0.019-1.979,0.028
	c-0.153,0.002-0.308,0.004-0.46,0.006c-1.64,0.021-3.259,0.039-4.848,0.053c-0.179,0.002-0.356,0.003-0.535,0.004
	c-0.607,0.005-1.213,0.01-1.811,0.014c-0.223,0.001-0.442,0.003-0.664,0.004c-0.555,0.003-1.107,0.007-1.655,0.01
	c-0.254,0.001-0.506,0.002-0.758,0.004c-0.48,0.002-0.957,0.004-1.431,0.006c-0.307,0.001-0.613,0.002-0.918,0.003
	c-0.426,0.001-0.849,0.003-1.268,0.004c-0.314,0.001-0.628,0.002-0.939,0.002c-0.408,0.001-0.813,0.002-1.215,0.002
	c-0.305,0-0.611,0.001-0.913,0.001c-0.422,0.001-0.837,0.001-1.252,0.001c-0.26,0-0.522,0-0.779,0.001
	c-1.35,0.001-2.666,0.001-3.939,0.001c-1.455,0-2.876,0.037-4.277,0.097c-0.184,0.008-0.37,0.013-0.554,0.021
	c-1.324,0.064-2.622,0.157-3.898,0.272c-0.229,0.02-0.458,0.042-0.686,0.064c-1.257,0.123-2.492,0.268-3.703,0.438
	c-0.202,0.028-0.4,0.06-0.601,0.089c-1.239,0.182-2.459,0.385-3.65,0.615c-0.095,0.018-0.189,0.04-0.284,0.059
	c-1.185,0.234-2.346,0.491-3.485,0.77c-0.101,0.025-0.206,0.048-0.307,0.072c-1.136,0.283-2.245,0.592-3.335,0.918
	c-0.176,0.053-0.355,0.104-0.53,0.158c-1.055,0.323-2.089,0.667-3.101,1.028c-0.177,0.064-0.354,0.128-0.53,0.193
	c-1.017,0.372-2.016,0.758-2.991,1.166c-0.125,0.052-0.245,0.106-0.369,0.159c-1.012,0.43-2.006,0.874-2.973,1.34
	c-0.008,0.004-0.017,0.008-0.025,0.012c-0.97,0.468-1.913,0.958-2.84,1.46c-0.12,0.065-0.241,0.128-0.36,0.194
	c-0.878,0.483-1.735,0.982-2.573,1.493c-0.144,0.087-0.288,0.175-0.43,0.264c-0.827,0.513-1.636,1.037-2.426,1.575
	c-0.121,0.082-0.239,0.165-0.359,0.248c-0.81,0.56-1.605,1.129-2.375,1.713c-0.044,0.033-0.086,0.068-0.13,0.101
	c-0.772,0.587-1.522,1.186-2.254,1.794c-0.063,0.053-0.128,0.103-0.191,0.156c-0.722,0.604-1.421,1.22-2.106,1.842
	c-0.105,0.095-0.211,0.191-0.315,0.287c-0.663,0.61-1.309,1.229-1.937,1.854c-0.102,0.102-0.204,0.205-0.306,0.307
	c-0.633,0.637-1.25,1.278-1.848,1.927c-0.065,0.071-0.129,0.143-0.194,0.214c-0.619,0.677-1.224,1.36-1.807,2.048
	c-0.006,0.007-0.012,0.014-0.018,0.021c-0.582,0.687-1.143,1.381-1.69,2.076c-0.069,0.087-0.139,0.173-0.207,0.262
	c-0.519,0.666-1.021,1.334-1.509,2.005c-0.08,0.109-0.159,0.219-0.239,0.33c-0.481,0.667-0.948,1.336-1.399,2.006
	c-0.065,0.096-0.129,0.194-0.193,0.29c-0.462,0.692-0.912,1.386-1.344,2.077c-0.019,0.03-0.036,0.061-0.056,0.091
	c-0.432,0.693-0.847,1.386-1.249,2.075c-0.038,0.064-0.076,0.129-0.114,0.193c-0.391,0.676-0.766,1.349-1.13,2.02
	c-0.058,0.106-0.116,0.213-0.173,0.319c-0.352,0.654-0.69,1.305-1.017,1.951c-0.055,0.107-0.108,0.215-0.162,0.322
	c-0.326,0.652-0.642,1.3-0.943,1.941c-0.034,0.074-0.068,0.147-0.102,0.221c-0.304,0.651-0.597,1.296-0.876,1.932
	c-0.011,0.026-0.024,0.053-0.035,0.079c-0.28,0.639-0.544,1.268-0.8,1.89c-0.04,0.096-0.08,0.193-0.119,0.288
	c-0.24,0.59-0.468,1.17-0.687,1.742c-0.044,0.115-0.087,0.229-0.131,0.343c-0.213,0.563-0.418,1.116-0.611,1.658
	c-0.035,0.1-0.07,0.199-0.105,0.299c-0.196,0.554-0.384,1.1-0.561,1.629c-0.016,0.049-0.03,0.095-0.047,0.144
	c-0.167,0.506-0.324,0.999-0.475,1.481c-0.017,0.054-0.036,0.113-0.053,0.165h-66.903c-0.005-0.056-0.013-0.111-0.018-0.165
	c-0.126-1.413-0.281-2.82-0.459-4.223c-0.028-0.227-0.057-0.454-0.086-0.681c-0.182-1.375-0.391-2.745-0.625-4.107
	c-0.041-0.237-0.082-0.473-0.125-0.711c-0.242-1.368-0.508-2.728-0.801-4.083c-0.045-0.206-0.092-0.411-0.138-0.615
	c-0.309-1.392-0.639-2.778-1.001-4.155c-0.03-0.117-0.064-0.231-0.095-0.348c-0.37-1.394-0.766-2.779-1.19-4.156
	c-0.023-0.077-0.046-0.154-0.069-0.231c-0.426-1.375-0.884-2.738-1.364-4.094c-0.065-0.184-0.127-0.368-0.193-0.551
	c-0.467-1.303-0.962-2.595-1.478-3.879c-0.088-0.22-0.176-0.441-0.267-0.661c-0.518-1.267-1.059-2.525-1.624-3.773
	c-0.097-0.215-0.196-0.429-0.295-0.643c-0.58-1.26-1.18-2.51-1.808-3.749c-0.085-0.168-0.173-0.335-0.26-0.503
	c-0.659-1.286-1.338-2.561-2.047-3.822c-0.034-0.061-0.071-0.122-0.105-0.182c-0.712-1.258-1.45-2.503-2.21-3.735
	c-0.066-0.106-0.13-0.215-0.196-0.321c-0.752-1.208-1.532-2.401-2.332-3.582c-0.119-0.176-0.236-0.353-0.356-0.528
	c-0.784-1.145-1.592-2.275-2.42-3.392c-0.143-0.194-0.287-0.386-0.432-0.579c-0.833-1.109-1.687-2.206-2.563-3.287
	c-0.142-0.175-0.287-0.35-0.431-0.525c-0.902-1.1-1.823-2.187-2.769-3.255c-0.105-0.12-0.214-0.236-0.32-0.356
	c-1.002-1.121-2.023-2.229-3.073-3.315c-1.026-1.06-2.074-2.094-3.136-3.108c-0.128-0.122-0.253-0.246-0.381-0.368
	c-1.014-0.96-2.045-1.897-3.089-2.815c-0.176-0.155-0.353-0.311-0.529-0.464c-1.034-0.898-2.083-1.777-3.146-2.635
	c-0.181-0.147-0.364-0.291-0.546-0.437c-1.085-0.864-2.181-1.71-3.294-2.532c-0.137-0.101-0.276-0.199-0.414-0.3
	c-2.351-1.719-4.762-3.341-7.229-4.866c-0.142-0.087-0.282-0.177-0.424-0.265c-1.177-0.721-2.369-1.414-3.571-2.091
	c-0.197-0.111-0.394-0.222-0.592-0.332c-1.189-0.659-2.389-1.296-3.6-1.91c-0.2-0.101-0.4-0.201-0.6-0.301
	c-1.234-0.616-2.478-1.214-3.733-1.784c-0.148-0.067-0.297-0.131-0.445-0.198c-2.644-1.187-5.335-2.271-8.066-3.249
	c-0.153-0.055-0.304-0.112-0.457-0.166c-1.301-0.459-2.612-0.891-3.931-1.303c-0.215-0.067-0.43-0.135-0.646-0.201
	c-1.302-0.397-2.611-0.772-3.928-1.121c-0.218-0.058-0.436-0.114-0.655-0.17c-1.338-0.347-2.683-0.673-4.035-0.971
	c-0.165-0.037-0.332-0.069-0.497-0.105c-2.844-0.612-5.717-1.115-8.618-1.507c-0.114-0.015-0.226-0.038-0.34-0.052
	C29.183,260.139,33.646,241.186,36.14,231.328z M22.629,299.503c0.461,0.059,0.925,0.114,1.384,0.179
	c0.613,0.088,1.227,0.177,1.836,0.277c0.863,0.141,1.721,0.299,2.576,0.462c0.59,0.113,1.182,0.222,1.768,0.346
	c0.885,0.187,1.762,0.395,2.639,0.606c0.542,0.131,1.089,0.252,1.628,0.392c0.98,0.254,1.951,0.535,2.92,0.819
	c0.422,0.124,0.849,0.235,1.267,0.364c1.38,0.426,2.749,0.879,4.102,1.365c0.218,0.078,0.43,0.168,0.647,0.247
	c1.133,0.416,2.26,0.846,3.374,1.302c0.475,0.195,0.942,0.408,1.413,0.609c0.847,0.363,1.692,0.727,2.527,1.113
	c0.525,0.243,1.041,0.501,1.561,0.753c0.767,0.372,1.533,0.747,2.288,1.139c0.536,0.278,1.066,0.567,1.596,0.854
	c0.726,0.393,1.449,0.793,2.164,1.204c0.53,0.305,1.057,0.617,1.582,0.933c0.702,0.422,1.397,0.852,2.088,1.291
	c0.514,0.327,1.027,0.657,1.535,0.993c0.689,0.456,1.369,0.925,2.046,1.398c0.489,0.342,0.977,0.681,1.46,1.032
	c0.692,0.504,1.373,1.022,2.051,1.543c0.446,0.342,0.895,0.678,1.335,1.028c0.737,0.586,1.458,1.191,2.178,1.799
	c0.362,0.305,0.731,0.601,1.089,0.911c1.046,0.909,2.075,1.838,3.082,2.79c0.02,0.019,0.042,0.037,0.061,0.056
	c1.026,0.972,2.029,1.969,3.012,2.985c0.319,0.331,0.626,0.672,0.941,1.007c0.655,0.695,1.309,1.393,1.944,2.107
	c0.364,0.41,0.716,0.83,1.073,1.246c0.567,0.659,1.13,1.32,1.68,1.995c0.367,0.45,0.723,0.908,1.082,1.366
	c0.519,0.66,1.032,1.325,1.534,1.998c0.355,0.477,0.703,0.957,1.048,1.44c0.485,0.676,0.962,1.359,1.43,2.048
	c0.334,0.491,0.663,0.983,0.989,1.481c0.46,0.706,0.908,1.418,1.351,2.136c0.305,0.495,0.611,0.99,0.908,1.49
	c0.444,0.749,0.872,1.51,1.296,2.272c0.269,0.483,0.543,0.963,0.804,1.451c0.446,0.834,0.871,1.681,1.293,2.53
	c0.213,0.429,0.436,0.852,0.643,1.284c0.538,1.124,1.051,2.262,1.547,3.409c0.072,0.165,0.151,0.327,0.222,0.494
	c0.564,1.323,1.096,2.661,1.601,4.012c0.137,0.366,0.258,0.738,0.389,1.106c0.355,0.983,0.704,1.97,1.026,2.968
	c0.162,0.502,0.308,1.011,0.462,1.517c0.268,0.877,0.532,1.755,0.776,2.641c0.153,0.557,0.292,1.118,0.435,1.678
	c0.216,0.849,0.427,1.698,0.62,2.555c0.133,0.587,0.255,1.178,0.378,1.769c0.174,0.844,0.339,1.691,0.49,2.543
	c0.107,0.602,0.21,1.207,0.305,1.812c0.136,0.858,0.258,1.72,0.37,2.584c0.079,0.603,0.158,1.208,0.225,1.814
	c0.031,0.286,0.052,0.575,0.081,0.861H15.263C15.652,358.597,18.125,329.598,22.629,299.503z M496.792,420.258H15.208v-19.145
	h92.233h15.211h62.579h9.568h6.043h295.95V420.258z"/>
</svg>