<?xml version="1.0" encoding="UTF-8" standalone="no"?>
<!-- Created with Inkscape (http://www.inkscape.org/) -->

<svg
   width="46.835262mm"
   height="61.80117mm"
   viewBox="0 0 46.835262 61.80117"
   version="1.1"
   id="svg1"
   xml:space="preserve"
   inkscape:version="1.3 (1:1.3+202307231459+0e150ed6c4)"
   sodipodi:docname="nsv_doc.svg"
   xmlns:inkscape="http://www.inkscape.org/namespaces/inkscape"
   xmlns:sodipodi="http://sodipodi.sourceforge.net/DTD/sodipodi-0.dtd"
   xmlns="http://www.w3.org/2000/svg"
   xmlns:svg="http://www.w3.org/2000/svg"><sodipodi:namedview
     id="namedview1"
     pagecolor="#ffffff"
     bordercolor="#666666"
     borderopacity="1.0"
     inkscape:showpageshadow="2"
     inkscape:pageopacity="0.0"
     inkscape:pagecheckerboard="0"
     inkscape:deskcolor="#d1d1d1"
     inkscape:document-units="mm"
     inkscape:zoom="1.5073232"
     inkscape:cx="386.11493"
     inkscape:cy="579.83582"
     inkscape:window-width="1920"
     inkscape:window-height="1088"
     inkscape:window-x="1080"
     inkscape:window-y="360"
     inkscape:window-maximized="1"
     inkscape:current-layer="layer1"
     showguides="true"><sodipodi:guide
       position="-34.574786,257.55233"
       orientation="1,0"
       id="guide9"
       inkscape:locked="false" /></sodipodi:namedview><defs
     id="defs1" /><g
     inkscape:label="Layer 1"
     inkscape:groupmode="layer"
     id="layer1"
     transform="translate(-95.145251,-133.3271)"><g
       id="g16"
       inkscape:export-filename="nsv.svg"
       inkscape:export-xdpi="500"
       inkscape:export-ydpi="500"><path
         style="fill:#e9afaf;fill-opacity:1;stroke:#782424;stroke-width:0.264583px;stroke-linecap:butt;stroke-linejoin:miter;stroke-opacity:1"
         d="m 109.10565,182.66472 c -0.58707,1.17662 0.63913,2.59678 1.33661,3.71151 0.65171,1.04158 1.96813,1.57004 2.57265,2.6397 0.81941,1.4499 -0.32284,4.33518 1.26641,4.83311 4.9111,1.53872 4.46301,1.51808 9.10459,0.005 1.49464,-0.48726 0.5202,-5.19013 1.79938,-6.10396 0.84338,-0.6025 1.64897,-1.13678 2.35145,-1.82608 0.99927,-0.98052 1.12887,-2.81497 0.59833,-3.88362 -0.63059,-1.27016 -2.61424,-1.19401 -4.01728,-1.40003 -3.2527,-0.47762 -6.61402,-0.13014 -9.85329,0.43135 -1.7733,0.30738 -4.35534,-0.0173 -5.15885,1.59309 z"
         id="path16"
         sodipodi:nodetypes="ssssssssssss"
         inkscape:export-filename="path16.svg"
         inkscape:export-xdpi="500"
         inkscape:export-ydpi="500" /><path
         style="fill:#e9a2a2;fill-opacity:1;stroke:#782424;stroke-width:0.264583px;stroke-linecap:butt;stroke-linejoin:miter;stroke-opacity:1"
         d="m 102.51402,168.65758 c -1.34266,0.67349 -2.27256,2.1476 -2.745684,3.57325 -0.516168,1.55535 -0.345186,3.33058 0.07037,4.91578 0.483304,1.84363 1.523924,5.5898 6.853894,7.72738 3.27818,1.234 8.47342,0.12868 11.83581,-0.0673 4.18856,-0.23062 8.76077,1.31133 12.73552,-0.48394 4.55043,-2.20117 6.06525,-5.28087 5.59992,-10.24895 -0.16891,-1.55951 -0.49055,-3.2903 -1.55664,-4.44097 -0.78796,-0.85047 -2.04878,-1.16743 -3.18515,-1.39729 -9.67443,-1.95685 -20.78543,-4.00355 -29.60804,0.42199 z"
         id="path13"
         sodipodi:nodetypes="ssssssssss" /><path
         style="fill:#f5c5c5;fill-opacity:1;stroke:#782424;stroke-width:0.264583px;stroke-linecap:butt;stroke-linejoin:miter;stroke-opacity:1"
         d="m 110.54289,141.25533 c -0.32859,-0.49395 -0.299,-1.19151 -0.17334,-1.77131 0.34821,-1.6067 1.42684,-2.99813 2.4694,-4.26926 0.54055,-0.65906 1.08913,-1.49937 1.92022,-1.68871 0.90406,-0.20597 2.03481,0.0834 2.67841,0.7509 0.62134,0.6444 0.93233,2.69535 0.93233,2.69535 l -0.0867,6.61915 c 0,0 -0.45978,0.35481 -1.49791,1.02827 -1.98305,1.28645 -4.93317,-1.39631 -6.2424,-3.36439 z"
         id="path10"
         sodipodi:nodetypes="sssssccsss" /><path
         style="fill:#f5c5c5;fill-opacity:1;stroke:#782424;stroke-width:0.264583px;stroke-linecap:butt;stroke-linejoin:miter;stroke-opacity:1"
         d="m 120.10758,144.62397 c -0.68085,-0.0693 -1.78096,-0.93793 -1.78096,-0.93793 l 0.0815,-6.67869 c 0,0 0.55621,-2.02286 1.41259,-2.64574 0.87814,-0.6387 2.16715,-1.08992 3.18113,-0.70144 1.25344,0.48023 1.71226,2.08957 2.34633,3.27265 0.48192,0.8992 0.63436,1.92418 0.6329,2.94437 -9.9e-4,0.68955 0.0713,1.62411 -0.25739,2.23026 -0.27454,0.50623 -0.58074,0.6781 -1.04627,1.0171 -1.29596,0.94373 -2.97487,1.66183 -4.56979,1.49942 z"
         id="path11"
         sodipodi:nodetypes="sccssssssss" /><path
         style="fill:#e9afaf;fill-opacity:1;stroke:#782424;stroke-width:0.264583px;stroke-linecap:butt;stroke-linejoin:miter;stroke-opacity:1"
         d="m 108.54935,176.63449 c -0.24388,1.06975 -0.15114,2.31795 0.39889,3.26732 0.76984,1.32876 2.16404,2.58265 3.68955,2.75891 1.88446,0.21773 3.31931,-2.20224 5.21475,-2.27896 1.89454,-0.0767 3.48325,1.83913 5.37931,1.84918 1.03611,0.005 2.10171,-0.38446 2.9501,-0.97927 1.09976,-0.77105 2.12678,-1.87132 2.497,-3.16241 0.3034,-1.05806 0.10916,-2.28743 -0.36199,-3.2822 -1.15853,-2.44606 -3.89355,-3.769 -5.68036,-5.8019 -1.22036,-1.38843 -1.63721,-3.91352 -3.432,-4.35598 -1.47818,-0.36441 -3.0162,0.8697 -4.17021,1.86271 -3.03751,2.61374 -5.59434,6.21559 -6.48504,10.1226 z"
         id="path12"
         sodipodi:nodetypes="ssssssssssss" /><path
         style="fill:#f5c5c5;fill-opacity:1;stroke:#782424;stroke-width:0.264583px;stroke-linecap:butt;stroke-linejoin:miter;stroke-opacity:1"
         d="m 118.55402,143.50792 -0.0876,23.95003 c 0,0 1.25556,4.04723 2.55743,5.65507 1.58199,1.95379 3.81471,3.36883 6.07509,4.46911 1.60987,0.78363 3.38541,1.51794 5.17425,1.44184 2.4392,-0.10377 5.05204,-0.92076 6.86293,-2.55817 1.45086,-1.31186 2.32192,-3.32759 2.59107,-5.26499 0.52917,-3.80915 -0.77523,-7.73049 -2.07977,-11.3482 -1.84191,-5.10793 -4.4326,-10.0858 -7.96523,-14.2094 -1.78659,-2.08547 -3.84056,-4.33581 -6.48294,-5.08343 -1.49608,-0.42329 -3.26658,-0.21083 -4.63441,0.52841 -0.92261,0.49862 -2.01082,2.41973 -2.01082,2.41973 z"
         id="path14"
         sodipodi:nodetypes="ccsssssssssc" /><path
         style="fill:#f5c5c5;fill-opacity:1;stroke:#782424;stroke-width:0.264583px;stroke-linecap:butt;stroke-linejoin:miter;stroke-opacity:1"
         d="m 105.75331,144.18246 c 1.67017,-1.69039 3.6606,-3.38514 5.98685,-3.87037 1.66418,-0.34713 3.62121,-0.12176 5.0327,0.82569 1.78336,1.19707 1.69942,2.79226 1.69942,2.79226 l -0.0135,23.56381 c 0,0 -1.74061,4.0876 -3.02353,5.54302 -1.55708,1.76644 -3.04253,3.2668 -5.1586,4.29981 -2.11812,1.03401 -4.50583,1.89269 -6.85702,1.72677 -1.82503,-0.12879 -3.707829,-0.86614 -5.081555,-2.07453 -1.436562,-1.26366 -2.430117,-3.12279 -2.829465,-4.9939 -0.646504,-3.02914 0.203436,-6.22787 0.880872,-9.25025 0.668986,-2.98468 1.771108,-5.88328 3.112437,-8.63222 1.715221,-3.5152 3.502401,-7.14776 6.251441,-9.93009 z"
         id="path15"
         sodipodi:nodetypes="sssccssssssss" /></g><path
       style="fill:none;stroke:#2ca02c;stroke-width:2;stroke-linecap:butt;stroke-linejoin:miter;stroke-dasharray:none;stroke-opacity:1"
       d="m 115.85646,150.73563 c 0,0 -8.82233,-1.44929 -9.773,0.51339 -2.87415,5.93377 12.4399,4.18816 10.69186,9.5062 -1.08809,3.31025 -6.47942,0.24473 -8.02468,3.78138 -1.17266,2.68388 1.65911,6.88039 1.59337,8.417 0.29377,2.86023 -5.68522,1.83944 -8.10835,2.24284"
       id="path17"
       sodipodi:nodetypes="cssssc" /><g
       id="g1"
       style="fill:#782424;fill-opacity:1;stroke-width:6.21349;stroke-dasharray:none"
       transform="matrix(0.08227307,0,0,0.0787065,110.72593,132.90854)"><circle
         cx="59.969906"
         cy="223.08089"
         r="17.63888"
         stroke="#000000"
         stroke-linejoin="round"
         id="circle1-5"
         style="fill:#f5c5c5;fill-opacity:1;stroke:#165016;stroke-width:6.21347;stroke-linejoin:round;stroke-dasharray:none" /><path
         d="m 114.06509,112.38501 c 0,41.85882 -33.111706,83.71765 -46.950289,99.38451 -3.224388,3.65036 -8.708316,3.65036 -11.932703,0 C 41.343867,196.10266 8.2318081,154.24383 8.2318081,112.38501 c 0,-17.638883 13.2291599,-52.916643 52.9166409,-52.916643 39.687481,0 52.916641,35.27776 52.916641,52.916643 z"
         stroke="#000000"
         stroke-linejoin="round"
         id="path1"
         style="opacity:1;fill:#2ca02c;fill-opacity:1;stroke:#165016;stroke-width:6.21347;stroke-linejoin:round;stroke-dasharray:none" /><circle
         cx="63.004398"
         cy="115.0356"
         r="17.63888"
         stroke="#000000"
         stroke-linejoin="round"
         id="circle1"
         style="opacity:1;fill:#f5c5c5;fill-opacity:1;stroke:#165016;stroke-width:6.21347;stroke-linejoin:round;stroke-dasharray:none" /></g><g
       id="g2"
       style="stroke-width:6.21349;stroke-dasharray:none"
       transform="matrix(0.08227307,0,0,0.0787065,96.866006,159.14764)"><circle
         cx="59.924412"
         cy="201.9413"
         r="17.63888"
         stroke="#000000"
         stroke-linejoin="round"
         id="circle1-2-9"
         style="fill:#f5c5c5;fill-opacity:1;stroke:#165016;stroke-width:6.21347;stroke-linejoin:round;stroke-dasharray:none"
         transform="translate(-4.6643806e-6)" /><path
         d="m 113.53387,95.612351 c 0,41.858829 -33.111702,83.717659 -46.950286,99.384509 -3.224387,3.65037 -8.708315,3.65037 -11.932702,0 C 40.812652,179.33001 7.7005936,137.47118 7.7005936,95.612351 c 0,-17.63888 13.2291594,-52.91664 52.9166394,-52.91664 39.687477,0 52.916637,35.27776 52.916637,52.91664 z"
         stroke="#000000"
         stroke-linejoin="round"
         id="path1-6"
         style="opacity:1;fill:#2ca02c;fill-opacity:1;stroke:#165016;stroke-width:6.21347;stroke-linejoin:round;stroke-dasharray:none" /><circle
         cx="60.243591"
         cy="99.117805"
         r="17.63888"
         stroke="#000000"
         stroke-linejoin="round"
         id="circle1-2"
         style="opacity:1;fill:#f5c5c5;fill-opacity:1;stroke:#165016;stroke-width:6.21347;stroke-linejoin:round;stroke-dasharray:none" /></g></g></svg>
